<svg viewBox="0 0 680 580" width="100%" xmlns="http://www.w3.org/2000/svg" role="img" aria-label="碳管家AI助手系统架构图">
  <title>碳管家AI助手系统架构</title>
  <defs>
    <marker id="arrow2" viewBox="0 0 10 10" refX="8" refY="5" markerWidth="6" markerHeight="6" orient="auto-start-reverse">
      <path d="M2 1L8 5L2 9" fill="none" stroke="context-stroke" stroke-width="1.5" stroke-linecap="round" stroke-linejoin="round"/>
    </marker>
    <style>
      .lyr{font:500 12px sans-serif;fill:#444441}
      .ct{font:500 12px sans-serif}
      .cs{font:400 11px sans-serif}
    </style>
  </defs>
  <rect width="680" height="580" fill="#ffffff"/>
  <text x="340" y="28" text-anchor="middle" style="font:500 15px sans-serif;fill:#26215C">碳管家 AI 助手 · 系统架构（项目一）</text>

  <rect x="40" y="46" width="78" height="60" rx="8" fill="#EEEDFE" stroke="#534AB7" stroke-width="0.5"/>
  <text class="lyr" x="79" y="80" text-anchor="middle" dominant-baseline="central" fill="#26215C">接入层</text>
  <rect x="128" y="46" width="512" height="60" rx="8" fill="#F6F6FB" stroke="#B4B2A9" stroke-width="0.5"/>
  <rect x="138" y="54" width="158" height="44" rx="6" fill="#E6F1FB" stroke="#185FA5" stroke-width="0.5"/>
  <text class="ct" x="217" y="70" text-anchor="middle" dominant-baseline="central" fill="#0C447C">Web / H5 / 小程序</text>
  <text class="cs" x="217" y="86" text-anchor="middle" dominant-baseline="central" fill="#185FA5">多端统一接入</text>
  <rect x="306" y="54" width="158" height="44" rx="6" fill="#E6F1FB" stroke="#185FA5" stroke-width="0.5"/>
  <text class="ct" x="385" y="70" text-anchor="middle" dominant-baseline="central" fill="#0C447C">Spring Cloud Gateway</text>
  <text class="cs" x="385" y="86" text-anchor="middle" dominant-baseline="central" fill="#185FA5">鉴权 · 限流 · 租户识别</text>
  <rect x="474" y="54" width="156" height="44" rx="6" fill="#E6F1FB" stroke="#185FA5" stroke-width="0.5"/>
  <text class="ct" x="552" y="70" text-anchor="middle" dominant-baseline="central" fill="#0C447C">SSE / WebSocket</text>
  <text class="cs" x="552" y="86" text-anchor="middle" dominant-baseline="central" fill="#185FA5">流式输出双协议</text>
  <path d="M384 106 L384 122" stroke="#534AB7" stroke-width="1.5" fill="none" marker-end="url(#arrow2)"/>

  <rect x="40" y="124" width="78" height="60" rx="8" fill="#E1F5EE" stroke="#0F6E56" stroke-width="0.5"/>
  <text class="lyr" x="79" y="158" text-anchor="middle" dominant-baseline="central" fill="#085041">业务编排</text>
  <rect x="128" y="124" width="512" height="60" rx="8" fill="#F3FBF7" stroke="#B4B2A9" stroke-width="0.5"/>
  <rect x="140" y="132" width="116" height="44" rx="6" fill="#E1F5EE" stroke="#0F6E56" stroke-width="0.5"/>
  <text class="ct" x="198" y="148" text-anchor="middle" dominant-baseline="central" fill="#085041">会话管理</text>
  <text class="cs" x="198" y="164" text-anchor="middle" dominant-baseline="central" fill="#0F6E56">多轮上下文</text>
  <rect x="266" y="132" width="116" height="44" rx="6" fill="#E1F5EE" stroke="#0F6E56" stroke-width="0.5"/>
  <text class="ct" x="324" y="148" text-anchor="middle" dominant-baseline="central" fill="#085041">意图识别</text>
  <text class="cs" x="324" y="164" text-anchor="middle" dominant-baseline="central" fill="#0F6E56">BERT 微调分类</text>
  <rect x="392" y="132" width="116" height="44" rx="6" fill="#E1F5EE" stroke="#0F6E56" stroke-width="0.5"/>
  <text class="ct" x="450" y="148" text-anchor="middle" dominant-baseline="central" fill="#085041">人工转接</text>
  <text class="cs" x="450" y="164" text-anchor="middle" dominant-baseline="central" fill="#0F6E56">超范围兜底</text>
  <rect x="518" y="132" width="112" height="44" rx="6" fill="#E1F5EE" stroke="#0F6E56" stroke-width="0.5"/>
  <text class="ct" x="574" y="148" text-anchor="middle" dominant-baseline="central" fill="#085041">数据分析</text>
  <text class="cs" x="574" y="164" text-anchor="middle" dominant-baseline="central" fill="#0F6E56">满意度/意图分布</text>
  <path d="M384 184 L384 200" stroke="#0F6E56" stroke-width="1.5" fill="none" marker-end="url(#arrow2)"/>

  <rect x="40" y="202" width="78" height="84" rx="8" fill="#FAEEDA" stroke="#854F0B" stroke-width="0.5"/>
  <text class="lyr" x="79" y="236" text-anchor="middle" dominant-baseline="central" fill="#412402">AI 能力层</text>
  <text class="cs" x="79" y="254" text-anchor="middle" dominant-baseline="central" fill="#854F0B">核心</text>
  <rect x="128" y="202" width="512" height="84" rx="8" fill="#FCF6E9" stroke="#B4B2A9" stroke-width="0.5"/>
  <rect x="140" y="212" width="116" height="64" rx="6" fill="#FAEEDA" stroke="#854F0B" stroke-width="0.5"/>
  <text class="ct" x="198" y="230" text-anchor="middle" dominant-baseline="central" fill="#412402">RAG 混合检索</text>
  <text class="cs" x="198" y="248" text-anchor="middle" dominant-baseline="central" fill="#854F0B">Milvus 向量</text>
  <text class="cs" x="198" y="264" text-anchor="middle" dominant-baseline="central" fill="#854F0B">+ ES BM25 · RRF</text>
  <rect x="266" y="212" width="116" height="64" rx="6" fill="#FAEEDA" stroke="#854F0B" stroke-width="0.5"/>
  <text class="ct" x="324" y="230" text-anchor="middle" dominant-baseline="central" fill="#412402">Prompt 编排</text>
  <text class="cs" x="324" y="248" text-anchor="middle" dominant-baseline="central" fill="#854F0B">模板 + 检索结果</text>
  <text class="cs" x="324" y="264" text-anchor="middle" dominant-baseline="central" fill="#854F0B">+ 租户配置</text>
  <rect x="392" y="212" width="116" height="64" rx="6" fill="#FAEEDA" stroke="#854F0B" stroke-width="0.5"/>
  <text class="ct" x="450" y="230" text-anchor="middle" dominant-baseline="central" fill="#412402">模型推理网关</text>
  <text class="cs" x="450" y="248" text-anchor="middle" dominant-baseline="central" fill="#854F0B">多模型路由</text>
  <text class="cs" x="450" y="264" text-anchor="middle" dominant-baseline="central" fill="#854F0B">熔断/降级/重试</text>
  <rect x="518" y="212" width="112" height="64" rx="6" fill="#FAEEDA" stroke="#854F0B" stroke-width="0.5"/>
  <text class="ct" x="574" y="230" text-anchor="middle" dominant-baseline="central" fill="#412402">Function Calling</text>
  <text class="cs" x="574" y="248" text-anchor="middle" dominant-baseline="central" fill="#854F0B">LCA 计算引擎</text>
  <text class="cs" x="574" y="264" text-anchor="middle" dominant-baseline="central" fill="#854F0B">因子查询工具</text>
  <path d="M384 286 L384 302" stroke="#854F0B" stroke-width="1.5" fill="none" marker-end="url(#arrow2)"/>

  <rect x="40" y="304" width="78" height="60" rx="8" fill="#FCEBEB" stroke="#A32D2D" stroke-width="0.5"/>
  <text class="lyr" x="79" y="338" text-anchor="middle" dominant-baseline="central" fill="#501313">数据存储</text>
  <rect x="128" y="304" width="512" height="60" rx="8" fill="#FDF4F4" stroke="#B4B2A9" stroke-width="0.5"/>
  <rect x="140" y="312" width="92" height="44" rx="6" fill="#FCEBEB" stroke="#A32D2D" stroke-width="0.5"/>
  <text class="ct" x="186" y="328" text-anchor="middle" dominant-baseline="central" fill="#501313">MySQL</text>
  <text class="cs" x="186" y="344" text-anchor="middle" dominant-baseline="central" fill="#A32D2D">会话/租户</text>
  <rect x="240" y="312" width="92" height="44" rx="6" fill="#FCEBEB" stroke="#A32D2D" stroke-width="0.5"/>
  <text class="ct" x="286" y="328" text-anchor="middle" dominant-baseline="central" fill="#501313">Milvus</text>
  <text class="cs" x="286" y="344" text-anchor="middle" dominant-baseline="central" fill="#A32D2D">向量库</text>
  <rect x="340" y="312" width="92" height="44" rx="6" fill="#FCEBEB" stroke="#A32D2D" stroke-width="0.5"/>
  <text class="ct" x="386" y="328" text-anchor="middle" dominant-baseline="central" fill="#501313">Redis</text>
  <text class="cs" x="386" y="344" text-anchor="middle" dominant-baseline="central" fill="#A32D2D">缓存/限流</text>
  <rect x="440" y="312" width="92" height="44" rx="6" fill="#FCEBEB" stroke="#A32D2D" stroke-width="0.5"/>
  <text class="ct" x="486" y="328" text-anchor="middle" dominant-baseline="central" fill="#501313">Elasticsearch</text>
  <text class="cs" x="486" y="344" text-anchor="middle" dominant-baseline="central" fill="#A32D2D">全文检索</text>
  <rect x="540" y="312" width="92" height="44" rx="6" fill="#FCEBEB" stroke="#A32D2D" stroke-width="0.5"/>
  <text class="ct" x="586" y="328" text-anchor="middle" dominant-baseline="central" fill="#501313">MinIO</text>
  <text class="cs" x="586" y="344" text-anchor="middle" dominant-baseline="central" fill="#A32D2D">文档存储</text>

  <rect x="40" y="384" width="600" height="50" rx="8" fill="#F1EFE8" stroke="#5F5E5A" stroke-width="0.5"/>
  <text class="lyr" x="56" y="402" dominant-baseline="central" fill="#2C2C2A">监控运维</text>
  <text class="cs" x="160" y="402" dominant-baseline="central" fill="#444441">Prometheus · Grafana · ELK · SkyWalking 链路追踪</text>
  <text class="cs" x="160" y="420" dominant-baseline="central" fill="#888780">K8s + Docker · HPA 弹性扩缩 · 灰度发布</text>

  <rect x="40" y="448" width="600" height="118" rx="8" fill="none" stroke="#B4B2A9" stroke-width="0.5" stroke-dasharray="3 3"/>
  <text class="lyr" x="56" y="466" dominant-baseline="central" fill="#26215C">关键指标 &amp; 个人职责</text>
  <text class="cs" x="56" y="486" dominant-baseline="central" fill="#444441">· 日均 PV 10w+ · 峰值 QPS 500+ · 首字延迟 &lt; 800ms</text>
  <text class="cs" x="56" y="504" dominant-baseline="central" fill="#444441">· RAG 检索准确率 92%+（从 75% 优化）· 人工转接率 &lt; 5%</text>
  <text class="cs" x="56" y="522" dominant-baseline="central" fill="#444441">· 多租户隔离：MySQL 按 tenant_id 分表 / Milvus 按 collection / Redis key 前缀</text>
  <text class="cs" x="56" y="540" dominant-baseline="central" fill="#444441">· 限流：每租户 QPS 100，全局 2000 · API 成本 ↓60%（语义缓存+模型分级）</text>
  <text class="cs" x="56" y="558" dominant-baseline="central" fill="#534AB7">· 个人：开发负责人，主导选型/架构/RAG/性能优化，管理 5 人团队</text>
</svg>
